<svg width="73" height="72" viewBox="0 0 73 72" fill="none" xmlns="http://www.w3.org/2000/svg">
<path d="M0.5 36C0.5 16.1177 16.6177 0 36.5 0V0C56.3823 0 72.5 16.1177 72.5 36V36C72.5 55.8823 56.3823 72 36.5 72V72C16.6177 72 0.5 55.8823 0.5 36V36Z" fill="#FFF2F3"/>
<g clip-path="url(#clip0_1_76)">
<g clip-path="url(#clip1_1_76)">
<g clip-path="url(#clip2_1_76)">
<path d="M26.6132 47.5456H48.4106C48.4774 47.5456 48.542 47.5361 48.6041 47.5213C48.6091 47.5213 48.6132 47.5221 48.6182 47.5221C49.0835 47.5221 49.4615 47.1445 49.4615 46.6788V22.8433C49.4616 22.3778 49.0835 22 48.6182 22H48.4123H27.962H26.6144C24.3697 22 22.5438 23.8263 22.5438 26.0704C22.5438 26.1005 22.5497 26.129 22.5526 26.1581C22.5497 28.2311 22.524 47.2792 22.5497 49.7833C22.5481 49.8322 22.5421 49.88 22.5421 49.9295C22.5421 52.0873 24.2317 53.8538 26.3569 53.9873C26.3996 53.9939 26.4414 54.0001 26.4856 54.0001H48.6181C49.0834 54.0001 49.4614 53.6225 49.4614 53.1567V49.9823C49.4614 49.5169 49.0833 49.139 48.6181 49.139C48.1528 49.139 47.7747 49.517 47.7747 49.9823V52.3135H26.6132C25.3316 52.3135 24.2855 51.296 24.2341 50.0272C24.2353 50.0045 24.2394 49.9831 24.239 49.9601C24.2382 49.923 24.2369 49.8654 24.2361 49.7888C24.3098 48.54 25.3463 47.5456 26.6132 47.5456ZM27.1882 26.0704C27.1882 25.6049 27.566 25.227 28.0316 25.227C28.4971 25.227 28.8749 25.6049 28.8749 26.0704V43.2008C28.8749 43.6661 28.4971 44.0441 28.0316 44.0441C27.566 44.0441 27.1882 43.666 27.1882 43.2008V26.0704Z" fill="#E74040"/>
</g>
</g>
</g>
<defs>
<clipPath id="clip0_1_76">
<rect width="32" height="32" fill="white" transform="translate(20 22)"/>
</clipPath>
<clipPath id="clip1_1_76">
<rect width="32" height="32" fill="white" transform="translate(20 22)"/>
</clipPath>
<clipPath id="clip2_1_76">
<rect width="26.9231" height="32.0001" fill="white" transform="translate(22.5384 22)"/>
</clipPath>
</defs>
</svg>
