<svg width="73" height="72" viewBox="0 0 73 72" fill="none" xmlns="http://www.w3.org/2000/svg">
<path d="M0.5 36C0.5 16.1177 16.6177 0 36.5 0V0C56.3823 0 72.5 16.1177 72.5 36V36C72.5 55.8823 56.3823 72 36.5 72V72C16.6177 72 0.5 55.8823 0.5 36V36Z" fill="#FFF2F3"/>
<g clip-path="url(#clip0_1_63)">
<g clip-path="url(#clip1_1_63)">
<g clip-path="url(#clip2_1_63)">
<path d="M31.2754 43.6058H40.7247V48.3304H31.2754V43.6058Z" fill="#E74040"/>
<path d="M36 25.652C30.2686 25.652 25.6057 30.315 25.6057 36.0463V50.2203C25.6057 52.3044 27.3013 54 29.3855 54H42.6145C44.6986 54 46.3942 52.3044 46.3942 50.2203V36.0463C46.3942 30.3149 41.7314 25.652 36 25.652V25.652ZM30.3304 34.1564H41.6696V36.0463H39.7797V37.9362H37.8898V36.0463H30.3304V34.1564ZM42.6145 50.2203H29.3855V41.7159H42.6145V50.2203Z" fill="#E74040"/>
<path d="M45.7047 23.8388L40.3416 22L39.5572 24.288C41.4524 24.8625 43.155 25.8834 44.5427 27.228L45.7047 23.8388Z" fill="#E74040"/>
<path d="M32.4429 24.288L31.6584 22L26.2953 23.8388L27.4573 27.228C28.845 25.8834 30.5477 24.8625 32.4429 24.288V24.288Z" fill="#E74040"/>
</g>
</g>
</g>
<defs>
<clipPath id="clip0_1_63">
<rect width="32" height="32" fill="white" transform="translate(20 22)"/>
</clipPath>
<clipPath id="clip1_1_63">
<rect width="32" height="32" fill="white" transform="translate(20 22)"/>
</clipPath>
<clipPath id="clip2_1_63">
<rect width="20.7885" height="32" fill="white" transform="translate(25.6057 22)"/>
</clipPath>
</defs>
</svg>
