<svg width="73" height="72" viewBox="0 0 73 72" fill="none" xmlns="http://www.w3.org/2000/svg">
<path d="M0.5 36C0.5 16.1177 16.6177 0 36.5 0V0C56.3823 0 72.5 16.1177 72.5 36V36C72.5 55.8823 56.3823 72 36.5 72V72C16.6177 72 0.5 55.8823 0.5 36V36Z" fill="#FFF2F3"/>
<g clip-path="url(#clip0_1_86)">
<g clip-path="url(#clip1_1_86)">
<g clip-path="url(#clip2_1_86)">
<g clip-path="url(#clip3_1_86)">
<path d="M24.895 25.7764C24.8942 25.7764 24.8932 25.7764 24.8923 25.7764C24.5897 25.7764 24.305 25.8943 24.0901 26.1088C23.8728 26.3255 23.7531 26.6142 23.7531 26.9215V44.0922C23.7531 44.7218 24.2673 45.2353 24.8996 45.237C27.5649 45.2433 32.0305 45.7988 35.1112 49.0227V31.053C35.1112 30.8396 35.0566 30.6391 34.9537 30.4732C32.4253 26.4013 27.5665 25.7826 24.895 25.7764Z" fill="#E74040"/>
<path d="M48.2471 44.0922V26.9214C48.2471 26.6141 48.1274 26.3254 47.91 26.1086C47.6951 25.8942 47.4102 25.7762 47.1079 25.7762C47.1069 25.7762 47.1059 25.7762 47.1051 25.7762C44.4338 25.7826 39.5749 26.4013 37.0464 30.4731C36.9435 30.6391 36.8891 30.8396 36.8891 31.053V49.0225C39.9697 45.7987 44.4353 45.2432 47.1007 45.2368C47.7328 45.2352 48.2471 44.7217 48.2471 44.0922Z" fill="#E74040"/>
<path d="M50.8551 29.7361H50.0248V44.0921C50.0248 45.6998 48.715 47.0107 47.1049 47.0147C44.8441 47.0201 41.1163 47.4622 38.4763 49.9609C43.0423 48.8429 47.8556 49.5696 50.5988 50.1948C50.9413 50.2728 51.2953 50.1922 51.5697 49.9735C51.8431 49.7553 52 49.4291 52 49.0791V30.881C52.0001 30.2498 51.4864 29.7361 50.8551 29.7361Z" fill="#E74040"/>
<path d="M21.9752 44.0921V29.7361H21.1449C20.5137 29.7361 20 30.2498 20 30.881V49.0788C20 49.4289 20.1569 49.755 20.4303 49.9731C20.7045 50.1918 21.0582 50.2727 21.4012 50.1944C24.1444 49.5692 28.9579 48.8426 33.5237 49.9605C30.8837 47.4619 27.156 47.02 24.8952 47.0146C23.2851 47.0107 21.9752 45.6998 21.9752 44.0921Z" fill="#E74040"/>
</g>
</g>
</g>
</g>
<defs>
<clipPath id="clip0_1_86">
<rect width="32" height="32" fill="white" transform="translate(20 22)"/>
</clipPath>
<clipPath id="clip1_1_86">
<rect width="32" height="24.4476" fill="white" transform="translate(20 25.7762)"/>
</clipPath>
<clipPath id="clip2_1_86">
<rect width="32" height="24.4476" fill="white" transform="translate(20 25.7762)"/>
</clipPath>
<clipPath id="clip3_1_86">
<rect width="32" height="24.4476" fill="white" transform="translate(20 25.7762)"/>
</clipPath>
</defs>
</svg>
